{
  "accessors": [
    {
      "bufferView": 0,
      "componentType": 5126,
      "count": 6865,
      "max": [
        2.2883713245391846,
        2.483565092086792,
        7.023033618927002
      ],
      "min": [
        -2.32709002494812,
        -2.7146899700164795,
        -0.0015556799480691552
      ],
      "type": "VEC3"
    },
    {
      "bufferView": 1,
      "componentType": 5125,
      "count": 20652,
      "type": "SCALAR"
    },
    {
      "bufferView": 2,
      "componentType": 5126,
      "count": 6865,
      "type": "VEC3"
    },
    {
      "bufferView": 3,
      "componentType": 5126,
      "count": 6865,
      "type": "VEC4"
    },
    {
      "bufferView": 4,
      "componentType": 5126,
      "count": 6865,
      "type": "VEC2"
    },
    {
      "bufferView": 5,
      "componentType": 5126,
      "count": 511,
      "max": [
        3.1750197410583496,
        3.1860249042510986,
        3.186434268951416
      ],
      "min": [
        -3.1750199794769287,
        -3.1860198974609375,
        -3.1864500045776367
      ],
      "type": "VEC3"
    },
    {
      "bufferView": 6,
      "componentType": 5125,
      "count": 1580,
      "type": "SCALAR"
    },
    {
      "bufferView": 7,
      "componentType": 5126,
      "count": 511,
      "type": "VEC3"
    },
    {
      "bufferView": 8,
      "componentType": 5126,
      "count": 511,
      "type": "VEC4"
    },
    {
      "bufferView": 9,
      "componentType": 5126,
      "count": 511,
      "type": "VEC2"
    }
  ],
  "asset": {
    "version": "2.0"
  },
  "bufferViews": [
    {
      "buffer": 0,
      "byteLength": 82380,
      "target": 34962
    },
    {
      "buffer": 1,
      "byteLength": 82608,
      "target": 34963
    },
    {
      "buffer": 2,
      "byteLength": 82380,
      "target": 34962
    },
    {
      "buffer": 3,
      "byteLength": 109840,
      "target": 34962
    },
    {
      "buffer": 4,
      "byteLength": 54920,
      "target": 34962
    },
    {
      "buffer": 5,
      "byteLength": 6132,
      "target": 34962
    },
    {
      "buffer": 6,
      "byteLength": 6320,
      "target": 34963
    },
    {
      "buffer": 7,
      "byteLength": 6132,
      "target": 34962
    },
    {
      "buffer": 8,
      "byteLength": 8176,
      "target": 34962
    },
    {
      "buffer": 9,
      "byteLength": 4088,
      "target": 34962
    }
  ],
  "buffers": [
    {
      "byteLength": 82380,
      "uri": "data:application/octet-stream;base64,"
    },
    {
      "byteLength": 82608,
      "uri": "data:application/octet-stream;base64,"
    },
    {
      "byteLength": 82380,
      "uri": "data:application/octet-stream;base64,"
    },
    {
      "byteLength": 109840,
      "uri": "data:application/octet-stream;base64,"
    },
    {
      "byteLength": 54920,
      "uri": "data:application/octet-stream;base64,"
    },
    {
      "byteLength": 6132,
      "uri": "data:application/octet-stream;base64,"
    },
    {
      "byteLength": 6320,
      "uri": "data:application/octet-stream;base64,"
    },
    {
      "byteLength": 6132,
      "uri": "data:application/octet-stream;base64,"
    },
    {
      "byteLength": 8176,
      "uri": "data:application/octet-stream;base64,"
    },
    {
      "byteLength": 4088,
      "uri": "data:application/octet-stream;base64,"
    }
  ],
  "materials": [
    {
      "doubleSided": true,
      "name": "Atlas",
      "normalTexture" : {
      "index" : 8,
      "scale" : 2
      },
      "occlusionTexture" : {
      "index" : 4
      },
      "pbrMetallicRoughness": {
        "baseColorTexture" : {"index" : 9},
        "metallicFactor" : 0,
        "metallicRoughnessTexture" : { "index" : 0 },
        "baseColorFactor": [
          1.0,
          1.0,
          1.0,
          1.0
        ]
      }
    }
,   {
      "doubleSided": true,
      "name": "Sphere",
      "normalTexture" : {
      "index" : 6,
      "scale" : 2
      },
      "occlusionTexture" : {
      "index" : 3
      },
      "pbrMetallicRoughness": {
        "baseColorTexture" : {"index" : 10},
        "metallicFactor" : 0,
        "metallicRoughnessTexture" : { "index" : 7 },
        "baseColorFactor": [
          1.0,
          1.0,
          1.0,
          1.0
        ]
      }
    }
  ],
  "images": [
    {
         "uri" : "0142d7e9676f4d5e876782a360768170__Atlas_Roughness.png"
    },
    {
         "uri" : "23af7a32e49d4978b4f256d6c8056bdd__Sphere_Metallic.png"
    },
    {
         "uri" : "a76fc12cd6b44520989dbd61c348b2fa__internal_ground_ao_texture.jpeg"
    },
    {
         "uri" : "aa343190bf844268af0ed5dc1d6c8b62__Sphere_Mixed_AO.png"
    },
    {
         "uri" : "aff257be7d7f44569b4c6f8ce4c79f04__Atlas_Mixed_AO.png"
    },
    {
         "uri" : "b07c4d38834943b9964ce4424befd2d3__Atlas_Metallic.png"
    },
    {
         "uri" : "be9ba63552ff46d4bad23ddc0e7ff3ac__Sphere_Normal_OpenGL.png"
    },
    {
         "uri" : "c050316b835a42b9a90558729437e903__Sphere_Roughness.png"
    },
    {
         "uri" : "d86decd4d5dc4420bdad4c28abf40cb0__Atlas_Normal_OpenGL.png"
    },
    {
         "uri" : "d997963077ff4cacbdb700286fa877ae__Atlas_Base_color.png"
    },
    {
         "uri" : "e7e7bef341404e95bdf5ce35ca1d8f27__Sphere_Base_color.png"
    }
  ],
  "textures": [
    {
         "source" : 0
    },
    {
         "source" : 1
    },
    {
         "source" : 2
    },
    {
         "source" : 3
    },
    {
         "source" : 4
    },
    {
         "source" : 5
    },
    {
         "source" : 6
    },
    {
         "source" : 7
    },
    {
         "source" : 8
    },
    {
         "source" : 9
    },
    {
         "source" : 10
    }
  ],
  "meshes": [
    {
      "name": "Atlas_Atlas_0",
      "primitives": [
        {
          "attributes": {
            "NORMAL": 2,
            "POSITION": 0,
            "TANGENT": 3,
            "TEXCOORD_0": 4
          },
          "indices": 1,
          "material": 0,
          "mode": 5
        }
      ]
    },
    {
      "name": "Sphere_Sphere_0",
      "primitives": [
        {
          "attributes": {
            "NORMAL": 7,
            "POSITION": 5,
            "TANGENT": 8,
            "TEXCOORD_0": 9
          },
          "indices": 6,
          "material": 1,
          "mode": 5
        }
      ]
    }
  ],
  "nodes": [
    {
      "mesh": 0,
      "name": "Atlas_Atlas_0"
    },
    {
      "mesh": 1,
      "name": "Sphere_Sphere_0"
    },
    {
      "children": [
        1
      ],
      "name": "Sphere",
      "rotation": [
        -1.32349e-23,
        0.0,
        0.0,
        1.0
      ],
      "scale": [
        1.0,
        1.0,
        1.0
      ],
      "translation": [
        -0.5788940191268921,
        -0.4107010066509247,
        8.269539833068848
      ]
    },
    {
      "children": [
        0,
        2
      ],
      "name": "Atlas",
      "rotation": [
        -0.7071068387878171,
        0.0,
        0.0,
        0.7071067235852733
      ],
      "scale": [
        100.0,
        100.0,
        100.0
      ],
      "translation": [
        0.0,
        0.0,
        0.0
      ]
    },
    {
      "children": [
        3
      ],
      "name": "RootNode"
    },
    {
      "children": [
        4
      ],
      "name": "0ffdfcc8592743cda42720d9f6516346.fbx",
      "rotation": [
        1.1102230246251565e-16,
        0.0,
        0.0,
        1.0
      ],
      "scale": [
        0.009999999776482582,
        0.009999999776482582,
        0.009999999776482582
      ],
      "translation": [
        0.0,
        0.0,
        0.0
      ]
    }
  ],
  "scene": 0,
  "scenes": [
    {
      "nodes": [
        5
      ]
    }
  ]
}
